<svg width="1413" height="115" viewBox="0 0 1413 115" fill="none" xmlns="http://www.w3.org/2000/svg">
<path d="M1411.73 5.21289V3.96289H1410.48H1393.55H1392.3V5.21289V46.4236C1392.3 59.1517 1392.5 73.3086 1392.9 88.8935C1386.66 75.8202 1379.98 62.3566 1372.88 48.5026L1372.88 48.5019L1350.36 4.64196L1350.01 3.96289H1349.25H1323.79H1322.54V5.21289V110.006V111.256H1323.79H1340.86H1342.11V110.006V68.7951C1342.11 54.6713 1341.88 40.5475 1341.42 26.4237C1347.64 39.4661 1354.3 52.8969 1361.39 66.7161L1361.39 66.7197L1384.05 110.58L1384.4 111.256H1385.16H1410.48H1411.73V110.006V5.21289Z" stroke="black" stroke-width="2.5"/>
<path d="M1222.74 16.8871L1222.74 16.8876C1213.85 26.8919 1209.47 40.5149 1209.47 57.6041C1209.47 74.6941 1213.85 88.3629 1222.74 98.4632L1222.74 98.4632L1222.74 98.4731C1231.75 108.491 1243.98 113.458 1259.29 113.458C1274.6 113.458 1286.79 108.491 1295.7 98.4678C1304.69 88.3677 1309.11 74.6972 1309.11 57.6041C1309.11 40.5144 1304.69 26.8911 1295.7 16.8875C1286.79 6.76757 1274.6 1.75 1259.29 1.75C1243.98 1.75 1231.75 6.76904 1222.74 16.8871ZM1280.38 29.9637L1280.39 29.9723C1285.66 36.6523 1288.36 45.8167 1288.36 57.6041C1288.36 69.3916 1285.66 78.556 1280.39 85.2359L1280.38 85.2446C1275.24 91.8856 1268.25 95.2099 1259.29 95.2099C1250.33 95.2099 1243.3 91.8862 1238.05 85.24C1232.88 78.5597 1230.22 69.3934 1230.22 57.6041C1230.22 45.8148 1232.88 36.6484 1238.05 29.9681C1243.3 23.3221 1250.33 19.9984 1259.29 19.9984C1268.25 19.9984 1275.24 23.3227 1280.38 29.9637Z" stroke="black" stroke-width="2.5"/>
<path d="M1196.1 5.21289V3.96289H1194.85H1177.18H1175.93V5.21289V110.006V111.256H1177.18H1194.85H1196.1V110.006V5.21289Z" stroke="black" stroke-width="2.5"/>
<path d="M1169.19 5.21289V3.96289H1167.94H1081.55H1080.3V5.21289V20.5197V21.7697H1081.55H1114.74V110.006V111.256H1115.99H1133.5H1134.75V110.006V21.7697H1167.94H1169.19V20.5197V5.21289Z" stroke="black" stroke-width="2.5"/>
<path d="M1078.93 42.3699H1080.23L1080.18 41.0656C1079.67 29.4827 1075.48 19.987 1067.56 12.6785C1059.63 5.35851 1049.2 1.75 1036.39 1.75C1021.56 1.75 1009.72 6.727 1001.01 16.7512L1001.01 16.7512L1001 16.7566C992.413 26.7622 988.191 40.4291 988.191 57.6041C988.191 74.7759 992.362 88.4406 1000.85 98.4461L1000.86 98.4516C1009.47 108.479 1021.21 113.458 1035.95 113.458C1048.74 113.458 1059.17 110.005 1067.1 102.989L1067.1 102.983C1075.03 95.8664 1079.51 86.0823 1080.61 73.7582L1080.74 72.3969H1079.37H1061.27H1060.18L1060.03 73.4772C1059.08 80.4056 1056.44 85.7045 1052.19 89.4924L1052.19 89.4923L1052.18 89.5015C1048.03 93.2803 1042.66 95.2099 1035.95 95.2099C1027.61 95.2099 1021.07 91.9579 1016.21 85.42C1011.41 78.7373 1008.94 69.5098 1008.94 57.6041C1008.94 45.6967 1011.46 36.524 1016.35 29.9436L1016.35 29.9436L1016.35 29.9368C1021.21 23.3044 1027.85 19.9984 1036.39 19.9984C1043.1 19.9984 1048.42 21.9281 1052.47 25.6973L1052.48 25.7073L1052.49 25.717C1056.63 29.3998 1059.12 34.5393 1059.88 41.2598L1060 42.3699H1061.12H1078.93Z" stroke="black" stroke-width="2.5"/>
<path d="M956.783 3.96289H955.533V5.21289V69.8253C955.533 78.3923 953.605 84.6734 949.952 88.8745C946.315 93.0572 941.1 95.2151 934.117 95.2151C927.133 95.2151 921.918 93.0572 918.281 88.8745C914.628 84.6734 912.701 78.3923 912.701 69.8253V5.21289V3.96289H911.451H893.789H892.539V5.21289V70.4141C892.539 84.162 896.078 94.8717 903.343 102.341C910.609 109.812 920.932 113.463 934.117 113.463C947.299 113.463 957.577 109.813 964.747 102.337C972.009 94.8683 975.547 84.1598 975.547 70.4141V5.21289V3.96289H974.297H956.783Z" stroke="black" stroke-width="2.5"/>
<path d="M789.141 110.006V111.256H790.391H823.948C841.721 111.256 855.61 106.685 865.43 97.372L865.435 97.3674C875.261 87.9462 880.096 74.6305 880.096 57.6093C880.096 40.5906 875.262 27.3212 865.433 17.9966C855.614 8.58352 841.723 3.96289 823.948 3.96289H790.391H789.141V5.21289V110.006ZM809.155 93.4489V21.7697H823.653C835.774 21.7697 844.635 24.8108 850.475 30.6742C856.316 36.5386 859.346 45.4375 859.346 57.6093C859.346 69.7811 856.316 78.6801 850.475 84.5444C844.635 90.4078 835.774 93.4489 823.653 93.4489H809.155Z" stroke="black" stroke-width="2.5"/>
<path d="M689.342 16.8871L689.342 16.8876C680.449 26.8919 676.074 40.5149 676.074 57.6041C676.074 74.6941 680.449 88.3629 689.338 98.4632L689.338 98.4632L689.347 98.4731C698.353 108.491 710.585 113.458 725.894 113.458C741.202 113.458 753.389 108.491 762.299 98.4678C771.288 88.3677 775.714 74.6972 775.714 57.6041C775.714 40.5144 771.289 26.8911 762.299 16.8875C753.391 6.76758 741.204 1.75 725.894 1.75C710.581 1.75 698.347 6.76904 689.342 16.8871ZM746.983 29.9637L746.99 29.9723C752.258 36.6523 754.963 45.8167 754.963 57.6041C754.963 69.3916 752.258 78.556 746.99 85.2359L746.983 85.2446C741.838 91.8856 734.855 95.2099 725.894 95.2099C716.935 95.2099 709.898 91.8862 704.654 85.2401C699.481 78.5598 696.825 69.3935 696.825 57.6041C696.825 45.8147 699.481 36.6483 704.654 29.968C709.898 23.322 716.935 19.9984 725.894 19.9984C734.855 19.9984 741.838 23.3227 746.983 29.9637Z" stroke="black" stroke-width="2.5"/>
<path d="M591.215 110.006V111.256H592.465H610.127H611.377V110.006V69.162H625.286C630.432 69.162 634.125 70.2612 636.562 72.263L636.57 72.2699L636.578 72.2765C639.143 74.3108 641.497 78.1582 643.53 84.0624C643.531 84.064 643.532 84.0656 643.532 84.0672L652.36 110.403L652.646 111.256H653.545H672.826H674.609L674.001 109.579L663.258 80.0008C663.258 79.9995 663.257 79.9982 663.257 79.9968C660.893 73.3983 658.582 68.5802 656.294 65.6679C654.569 63.4729 652.389 61.7286 649.776 60.4258C654.63 58.6866 658.587 55.7926 661.607 51.7394C665.325 46.8825 667.158 41.0152 667.158 34.2075C667.158 24.2531 663.933 16.5966 657.328 11.4738C650.784 6.3978 641.112 3.96289 628.524 3.96289H592.465H591.215V5.21289V110.006ZM646.849 35.9737V35.9849L646.849 35.996C646.943 41.2108 645.417 45.1587 642.393 48.0087C639.386 50.7451 634.557 52.2382 627.641 52.2382H611.377V21.0338H626.611C633.653 21.0338 638.706 22.3664 641.975 24.8296C645.178 27.2426 646.849 30.8799 646.849 35.9737Z" stroke="black" stroke-width="2.5"/>
<path d="M502.027 110.006V111.256H503.277H520.939H522.189V110.006V71.9584H541.103C553.364 71.9584 562.98 68.9669 569.761 62.8025C576.539 56.6408 579.884 48.2857 579.884 37.8871C579.884 27.5823 576.536 19.278 569.761 13.1188C562.98 6.9544 553.364 3.96289 541.103 3.96289H503.277H502.027V5.21289V110.006ZM522.189 54.5931V21.3282H539.042C546.064 21.3282 551.097 22.7878 554.361 25.4928C557.58 28.1606 559.281 32.2117 559.281 37.8871C559.281 43.6149 557.578 47.7037 554.357 50.3949C551.093 53.1221 546.062 54.5931 539.042 54.5931H522.189Z" stroke="black" stroke-width="2.5"/>
<path d="M450.424 5.21289V3.96289H449.174H431.66H430.41V5.21289V46.6454H384.634V5.21289V3.96289H383.384H365.723H364.473V5.21289V110.006V111.256H365.723H383.384H384.634V110.006V64.4522H430.41V110.006V111.256H431.66H449.174H450.424V110.006V5.21289Z" stroke="black" stroke-width="2.5"/>
<path d="M348.752 42.3699H350.057L350 41.0656C349.497 29.4827 345.301 19.9871 337.383 12.6785C329.453 5.35851 319.022 1.75 306.216 1.75C291.384 1.75 279.54 6.727 270.832 16.7512L270.832 16.7512L270.828 16.7566C262.237 26.7622 258.016 40.4291 258.016 57.6041C258.016 74.7759 262.186 88.4406 270.676 98.4461L270.68 98.4516C279.29 108.479 291.038 113.458 305.775 113.458C318.566 113.458 328.991 110.005 336.922 102.989L336.929 102.983C344.859 95.8664 349.336 86.0823 350.438 73.7582L350.56 72.3969H349.193H331.09H330L329.852 73.4772C328.902 80.4056 326.266 85.7045 322.016 89.4924L322.016 89.4923L322.006 89.5015C317.858 93.2803 312.485 95.2099 305.775 95.2099C297.431 95.2099 290.892 91.9579 286.032 85.42C281.235 78.7373 278.766 69.5098 278.766 57.6041C278.766 45.6967 281.285 36.524 286.173 29.9436L286.173 29.9436L286.178 29.9368C291.035 23.3044 297.67 19.9984 306.216 19.9984C312.927 19.9984 318.245 21.9281 322.29 25.6973L322.301 25.7073L322.312 25.717C326.455 29.3998 328.943 34.5393 329.701 41.2598L329.826 42.3699H330.943H348.752Z" stroke="black" stroke-width="2.5"/>
<path d="M244.63 5.21289V3.96289H243.38H225.719H224.469V5.21289V110.006V111.256H225.719H243.38H244.63V110.006V5.21289Z" stroke="black" stroke-width="2.5"/>
<path d="M131.258 110.006V111.256H132.508H150.17H151.42V110.006V69.162H165.329C170.475 69.162 174.168 70.2612 176.605 72.263L176.613 72.2699L176.621 72.2765C179.186 74.3108 181.54 78.1582 183.573 84.0624C183.574 84.064 183.575 84.0656 183.575 84.0672L192.403 110.403L192.689 111.256H193.588H212.869H214.652L214.044 109.579L203.301 80.0008C203.301 80 203.301 79.9992 203.3 79.9984C200.936 73.3991 198.625 68.5804 196.337 65.6679C194.612 63.4729 192.432 61.7286 189.819 60.4258C194.673 58.6866 198.63 55.7926 201.65 51.7394C205.368 46.8825 207.201 41.0152 207.201 34.2075C207.201 24.2531 203.976 16.5966 197.371 11.4738C190.826 6.3978 181.155 3.96289 168.567 3.96289H132.508H131.258V5.21289V110.006ZM186.892 35.9737V35.9849L186.892 35.996C186.986 41.2107 185.46 45.1586 182.436 48.0086C179.429 50.745 174.6 52.2382 167.684 52.2382H151.42V21.0338H166.654C173.696 21.0338 178.749 22.3664 182.018 24.8296C185.221 27.2426 186.892 30.8799 186.892 35.9737Z" stroke="black" stroke-width="2.5"/>
<path d="M110.81 5.21289V3.96289H109.56H91.8984H90.6484V5.21289V110.006V111.256H91.8984H109.56H110.81V110.006V5.21289Z" stroke="black" stroke-width="2.5"/>
<path d="M81.3657 6.02707L83.1376 3.96289H80.4172H59.2231H58.6317L58.2566 4.42018L21.9117 48.733V5.21289V3.96289H20.6617H3H1.75V5.21289V110.006V111.256H3H20.6617H21.9117V110.006V62.7129L60.4556 110.788L60.8309 111.256H61.4309H84.2439H86.9467L85.1964 109.196L39.2314 55.1113L81.3657 6.02707Z" stroke="black" stroke-width="2.5"/>
</svg>
