<svg width="9" height="10" viewBox="0 0 9 10" fill="none" xmlns="http://www.w3.org/2000/svg">
<mask id="mask0_396_1547" style="mask-type:alpha" maskUnits="userSpaceOnUse" x="0" y="0" width="9" height="10">
<rect x="0.232178" y="0.789062" width="8.42752" height="8.42752" fill="#D9D9D9"/>
</mask>
<g mask="url(#mask0_396_1547)">
<path d="M3.25343 8.69097L2.58625 7.5673L1.32212 7.28639L1.44503 5.98714L0.584717 5.00393L1.44503 4.02072L1.32212 2.72148L2.58625 2.44056L3.25343 1.31689L4.44733 1.82606L5.64123 1.31689L6.30841 2.44056L7.57253 2.72148L7.44963 4.02072L8.30994 5.00393L7.44963 5.98714L7.57253 7.28639L6.30841 7.5673L5.64123 8.69097L4.44733 8.18181L3.25343 8.69097ZM3.55191 7.79555L4.44733 7.40929L5.36031 7.79555L5.85192 6.9528L6.81757 6.72455L6.72978 5.74134L7.3794 5.00393L6.72978 4.24897L6.81757 3.26576L5.85192 3.05507L5.34275 2.21232L4.44733 2.59858L3.53435 2.21232L3.04274 3.05507L2.07709 3.26576L2.16488 4.24897L1.51526 5.00393L2.16488 5.74134L2.07709 6.74211L3.04274 6.9528L3.55191 7.79555ZM4.07863 6.2505L6.0626 4.26653L5.571 3.75736L4.07863 5.24974L3.32366 4.51233L2.83206 5.00393L4.07863 6.2505Z" fill="#0097F7"/>
</g>
</svg>
