<svg width="20" height="20" viewBox="0 0 20 20" fill="none" xmlns="http://www.w3.org/2000/svg">
<path d="M10.0431 0C12.7063 0.00131783 15.206 1.03023 17.0856 2.89791C18.9653 4.7655 19.9998 7.2483 19.9988 9.88814C19.9966 15.2819 15.619 19.6802 10.2076 19.7677L10.0433 19.769H10.0392C8.39857 19.7685 6.78609 19.3664 5.34888 18.6027L5.28171 18.5666L0.00390625 19.9405L1.41628 14.82C0.545175 13.3219 0.0867758 11.6219 0.0874788 9.88023C0.0896657 4.4324 4.5558 0 10.0431 0ZM10.0465 1.66899C5.48228 1.66899 1.77018 5.35295 1.76838 9.88109C1.76776 11.4091 2.19202 12.8982 2.99612 14.1921L3.03345 14.2517L3.23027 14.5625L2.39431 17.5929L5.5261 16.7777L5.82829 16.9555C7.07852 17.6919 8.50886 18.0872 9.96919 18.1L10.0399 18.1003H10.0433C14.604 18.1003 18.3161 14.4161 18.3179 9.88768C18.3187 7.69326 17.4589 5.62977 15.8966 4.07744C14.3343 2.52519 12.2567 1.66969 10.0465 1.66891V1.66899ZM6.5185 5.31729C6.68424 5.31729 6.85045 5.31884 6.99526 5.3262C7.14803 5.33364 7.35306 5.26861 7.55488 5.74992C7.63236 5.93442 7.75014 6.21946 7.87074 6.51062L7.89659 6.57302C8.09068 7.04163 8.28469 7.50884 8.32203 7.58302C8.38412 7.70651 8.42552 7.85085 8.34265 8.0155C8.25986 8.18039 8.21823 8.28326 8.09396 8.4276C7.96954 8.57163 7.83278 8.74954 7.72085 8.86008C7.71474 8.86608 7.70865 8.8721 7.70258 8.87814L7.68446 8.89651C7.57355 9.01039 7.48076 9.14093 7.61182 9.36372C7.75686 9.61101 8.25603 10.4197 8.99553 11.0743C9.94568 11.9153 10.7473 12.1761 10.996 12.2998C11.2447 12.4233 11.3899 12.4027 11.535 12.2378C11.6802 12.0731 12.1568 11.517 12.3227 11.2698C12.4885 11.0226 12.6543 11.064 12.8824 11.1463C12.9907 11.1854 13.324 11.3409 13.6706 11.5067L13.7784 11.5583C14.1254 11.725 14.4638 11.8907 14.5821 11.9495C14.8308 12.0731 14.9967 12.1349 15.0588 12.2378C15.121 12.3409 15.121 12.835 14.9137 13.4118C14.7065 13.9885 13.7126 14.5149 13.2347 14.5859C12.8061 14.6493 12.2638 14.6758 11.6679 14.4881C11.3067 14.3741 10.8433 14.2222 10.2497 13.9679C7.75444 12.8986 6.12462 10.4047 6.00035 10.24L5.99192 10.2288C5.84031 10.0278 4.98452 8.87651 4.98452 7.68589C4.98452 6.47078 5.62724 5.87349 5.85515 5.62628C6.08322 5.3793 6.35268 5.31729 6.5185 5.31729Z" fill="black"/>
</svg>
